<svg width="564.795" height="96.29" viewBox="0 0 564.795 96.29" xmlns="http://www.w3.org/2000/svg"><g id="svgGroup" stroke-linecap="round" fill-rule="evenodd" font-size="9pt" stroke="#ffffff" stroke-width="0.25mm" fill="#ffffff" style="stroke:#ffffff;stroke-width:0.25mm;fill:#ffffff"><path d="M 50.684 3.906 L 50.684 75 L 48.047 75 L 48.047 39.746 L 2.637 39.746 L 2.637 75 L 0 75 L 0 3.906 L 2.637 3.906 L 2.637 37.109 L 48.047 37.109 L 48.047 3.906 L 50.684 3.906 Z M 174.023 0 L 174.023 34.473 A 23.369 23.369 0 0 1 178.02 28.007 A 21.036 21.036 0 0 1 181.641 24.756 A 18.82 18.82 0 0 1 192.773 21.191 A 23.766 23.766 0 0 1 197.601 21.649 Q 202.543 22.676 205.396 26.001 Q 208.478 29.594 209.285 35.926 A 37.981 37.981 0 0 1 209.57 40.527 L 209.57 75 L 206.934 75 L 206.934 40.43 A 34.076 34.076 0 0 0 206.64 36 Q 205.923 30.787 203.467 27.856 A 10.569 10.569 0 0 0 198.618 24.646 Q 196.048 23.779 192.627 23.779 Q 185.791 23.779 180.786 28.638 A 23.584 23.584 0 0 0 174.987 37.833 A 30.03 30.03 0 0 0 174.023 41.162 L 174.023 75 L 171.387 75 L 171.387 0 L 174.023 0 Z M 308.057 48.73 L 308.057 48.047 Q 308.057 39.126 310.705 32.963 A 22.678 22.678 0 0 1 313.379 28.296 A 16.941 16.941 0 0 1 325.717 21.303 A 22.432 22.432 0 0 1 327.979 21.191 A 21.956 21.956 0 0 1 334.127 22.025 A 18.865 18.865 0 0 1 338.477 23.901 A 19.034 19.034 0 0 1 344.718 29.928 A 23.685 23.685 0 0 1 345.85 31.836 L 345.85 22.168 L 348.535 22.168 L 348.535 74.072 A 32.732 32.732 0 0 1 347.915 80.647 Q 347.096 84.64 345.195 87.713 A 18.115 18.115 0 0 1 343.164 90.405 A 17.717 17.717 0 0 1 332.417 96.008 A 25.385 25.385 0 0 1 328.564 96.289 A 21.428 21.428 0 0 1 321.38 95.104 A 19.949 19.949 0 0 1 318.823 93.994 A 21.394 21.394 0 0 1 311.688 87.948 A 24.999 24.999 0 0 1 311.279 87.402 L 313.135 85.645 A 26.584 26.584 0 0 0 316.357 89.093 A 20.592 20.592 0 0 0 319.873 91.626 A 15.772 15.772 0 0 0 325.226 93.456 A 20.664 20.664 0 0 0 328.467 93.701 A 21.52 21.52 0 0 0 333.754 93.089 A 14.688 14.688 0 0 0 341.162 88.745 A 16.624 16.624 0 0 0 344.747 82.329 Q 345.522 79.825 345.755 76.817 A 33.869 33.869 0 0 0 345.85 74.756 L 345.85 66.65 A 18.437 18.437 0 0 1 338.452 73.56 A 21.601 21.601 0 0 1 330.757 75.826 A 26.787 26.787 0 0 1 327.881 75.977 Q 318.95 75.977 313.67 69.09 A 21.586 21.586 0 0 1 313.379 68.701 Q 308.057 61.426 308.057 48.73 Z M 156.787 36.279 L 154.102 36.279 A 10.689 10.689 0 0 0 150.538 28.193 A 14.746 14.746 0 0 0 149.609 27.393 A 15.851 15.851 0 0 0 143.335 24.422 Q 141.016 23.87 138.303 23.831 A 28.83 28.83 0 0 0 137.891 23.828 Q 132.701 23.828 129.126 25.524 A 13.027 13.027 0 0 0 126.904 26.855 A 11.217 11.217 0 0 0 124.515 29.227 A 8.616 8.616 0 0 0 122.852 34.424 Q 122.852 37.988 124.365 40.015 Q 125.879 42.041 129.297 43.677 A 27.272 27.272 0 0 0 131.738 44.687 Q 134.76 45.786 139.258 46.826 Q 143.552 47.82 146.668 49.044 A 27.205 27.205 0 0 1 149.609 50.391 A 18.609 18.609 0 0 1 152.171 52.035 Q 153.528 53.084 154.461 54.285 A 10.296 10.296 0 0 1 155.127 55.249 A 11.378 11.378 0 0 1 156.543 58.967 A 16.014 16.014 0 0 1 156.836 62.109 A 12.239 12.239 0 0 1 155.554 67.749 Q 154.272 70.264 151.709 72.168 A 18.353 18.353 0 0 1 145.206 75.181 Q 142.662 75.827 139.681 75.949 A 34.456 34.456 0 0 1 138.281 75.977 A 31.977 31.977 0 0 1 132.339 75.456 Q 127.438 74.529 123.95 71.948 A 14.347 14.347 0 0 1 120.541 68.466 A 12.031 12.031 0 0 1 118.506 61.572 L 121.143 61.572 A 11.727 11.727 0 0 0 122.344 66.111 A 11.078 11.078 0 0 0 126.05 70.239 A 16.1 16.1 0 0 0 130.8 72.413 Q 134.062 73.34 138.281 73.34 Q 145.361 73.34 149.78 70.044 A 12.824 12.824 0 0 0 152.251 67.672 A 8.896 8.896 0 0 0 154.199 62.061 A 10.052 10.052 0 0 0 149.837 53.777 Q 146.148 50.965 139.338 49.323 A 56.035 56.035 0 0 0 137.793 48.975 A 66.738 66.738 0 0 1 132.977 47.775 Q 128.34 46.419 125.592 44.687 A 13.039 13.039 0 0 1 124.072 43.579 Q 120.215 40.283 120.215 34.521 A 11.322 11.322 0 0 1 123.972 25.923 A 15.335 15.335 0 0 1 125.122 24.951 A 17.498 17.498 0 0 1 131.732 21.873 Q 134.192 21.277 137.062 21.202 A 31.907 31.907 0 0 1 137.891 21.191 A 29.137 29.137 0 0 1 143.597 21.718 Q 147.048 22.407 149.752 23.999 A 16.633 16.633 0 0 1 151.611 25.269 A 13.056 13.056 0 0 1 156.725 34.797 A 17.401 17.401 0 0 1 156.787 36.279 Z M 400.537 36.279 L 397.852 36.279 A 10.689 10.689 0 0 0 394.288 28.193 A 14.746 14.746 0 0 0 393.359 27.393 A 15.851 15.851 0 0 0 387.085 24.422 Q 384.766 23.87 382.053 23.831 A 28.83 28.83 0 0 0 381.641 23.828 Q 376.451 23.828 372.876 25.524 A 13.027 13.027 0 0 0 370.654 26.855 A 11.217 11.217 0 0 0 368.265 29.227 A 8.616 8.616 0 0 0 366.602 34.424 Q 366.602 37.988 368.115 40.015 Q 369.629 42.041 373.047 43.677 A 27.272 27.272 0 0 0 375.488 44.687 Q 378.51 45.786 383.008 46.826 Q 387.302 47.82 390.418 49.044 A 27.205 27.205 0 0 1 393.359 50.391 A 18.609 18.609 0 0 1 395.921 52.035 Q 397.278 53.084 398.211 54.285 A 10.296 10.296 0 0 1 398.877 55.249 A 11.378 11.378 0 0 1 400.293 58.967 A 16.014 16.014 0 0 1 400.586 62.109 A 12.239 12.239 0 0 1 399.304 67.749 Q 398.022 70.264 395.459 72.168 A 18.353 18.353 0 0 1 388.956 75.181 Q 386.412 75.827 383.431 75.949 A 34.456 34.456 0 0 1 382.031 75.977 A 31.977 31.977 0 0 1 376.089 75.456 Q 371.188 74.529 367.7 71.948 A 14.347 14.347 0 0 1 364.291 68.466 A 12.031 12.031 0 0 1 362.256 61.572 L 364.893 61.572 A 11.727 11.727 0 0 0 366.094 66.111 A 11.078 11.078 0 0 0 369.8 70.239 A 16.1 16.1 0 0 0 374.55 72.413 Q 377.812 73.34 382.031 73.34 Q 389.111 73.34 393.53 70.044 A 12.824 12.824 0 0 0 396.001 67.672 A 8.896 8.896 0 0 0 397.949 62.061 A 10.052 10.052 0 0 0 393.587 53.777 Q 389.898 50.965 383.088 49.323 A 56.035 56.035 0 0 0 381.543 48.975 A 66.738 66.738 0 0 1 376.727 47.775 Q 372.09 46.419 369.342 44.687 A 13.039 13.039 0 0 1 367.822 43.579 Q 363.965 40.283 363.965 34.521 A 11.322 11.322 0 0 1 367.722 25.923 A 15.335 15.335 0 0 1 368.872 24.951 A 17.498 17.498 0 0 1 375.482 21.873 Q 377.942 21.277 380.812 21.202 A 31.907 31.907 0 0 1 381.641 21.191 A 29.137 29.137 0 0 1 387.347 21.718 Q 390.798 22.407 393.502 23.999 A 16.633 16.633 0 0 1 395.361 25.269 A 13.056 13.056 0 0 1 400.475 34.797 A 17.401 17.401 0 0 1 400.537 36.279 Z M 106.006 75 L 102.979 75 A 19.469 19.469 0 0 1 102.464 72.608 Q 102.067 70.077 102.011 66.523 A 75.893 75.893 0 0 1 102.002 65.332 A 21.192 21.192 0 0 1 93.457 73.193 A 25.261 25.261 0 0 1 84.531 75.803 A 31.184 31.184 0 0 1 81.201 75.977 A 21.909 21.909 0 0 1 76.11 75.417 A 15.188 15.188 0 0 1 69.409 71.997 A 13.087 13.087 0 0 1 64.959 62.417 A 17.684 17.684 0 0 1 64.941 61.621 A 12.945 12.945 0 0 1 69.445 51.564 A 18.209 18.209 0 0 1 71.509 49.976 A 24.449 24.449 0 0 1 78.615 46.817 Q 83.18 45.56 88.965 45.508 L 102.002 45.508 L 102.002 37.793 A 16.919 16.919 0 0 0 101.486 33.492 A 11.754 11.754 0 0 0 97.827 27.49 A 13.598 13.598 0 0 0 92.848 24.772 Q 90.798 24.131 88.319 23.925 A 29.415 29.415 0 0 0 85.889 23.828 A 23.218 23.218 0 0 0 80.266 24.476 A 17.313 17.313 0 0 0 73.828 27.539 A 13.659 13.659 0 0 0 70.93 30.501 A 10.561 10.561 0 0 0 68.994 36.719 L 66.357 36.621 A 13.049 13.049 0 0 1 70.521 27.004 A 18.869 18.869 0 0 1 72.021 25.684 A 20.616 20.616 0 0 1 82.421 21.406 A 27.195 27.195 0 0 1 85.889 21.191 A 27.694 27.694 0 0 1 91.462 21.719 Q 96.202 22.693 99.463 25.464 A 14.298 14.298 0 0 1 104.281 33.944 A 20.932 20.932 0 0 1 104.639 37.5 L 104.639 62.744 A 87.364 87.364 0 0 0 104.714 66.512 Q 104.944 71.826 105.882 74.259 A 7.322 7.322 0 0 0 106.006 74.561 L 106.006 75 Z M 294.922 75 L 291.895 75 A 19.469 19.469 0 0 1 291.38 72.608 Q 290.983 70.077 290.927 66.523 A 75.893 75.893 0 0 1 290.918 65.332 A 21.192 21.192 0 0 1 282.373 73.193 A 25.261 25.261 0 0 1 273.447 75.803 A 31.184 31.184 0 0 1 270.117 75.977 A 21.909 21.909 0 0 1 265.026 75.417 A 15.188 15.188 0 0 1 258.325 71.997 A 13.087 13.087 0 0 1 253.875 62.417 A 17.684 17.684 0 0 1 253.857 61.621 A 12.945 12.945 0 0 1 258.361 51.564 A 18.209 18.209 0 0 1 260.425 49.976 A 24.449 24.449 0 0 1 267.531 46.817 Q 272.096 45.56 277.881 45.508 L 290.918 45.508 L 290.918 37.793 A 16.919 16.919 0 0 0 290.402 33.492 A 11.754 11.754 0 0 0 286.743 27.49 A 13.598 13.598 0 0 0 281.764 24.772 Q 279.714 24.131 277.235 23.925 A 29.415 29.415 0 0 0 274.805 23.828 A 23.218 23.218 0 0 0 269.182 24.476 A 17.313 17.313 0 0 0 262.744 27.539 A 13.659 13.659 0 0 0 259.846 30.501 A 10.561 10.561 0 0 0 257.91 36.719 L 255.273 36.621 A 13.049 13.049 0 0 1 259.437 27.004 A 18.869 18.869 0 0 1 260.937 25.684 A 20.616 20.616 0 0 1 271.337 21.406 A 27.195 27.195 0 0 1 274.805 21.191 A 27.694 27.694 0 0 1 280.378 21.719 Q 285.118 22.693 288.379 25.464 A 14.298 14.298 0 0 1 293.197 33.944 A 20.932 20.932 0 0 1 293.555 37.5 L 293.555 62.744 A 87.364 87.364 0 0 0 293.63 66.512 Q 293.86 71.826 294.798 74.259 A 7.322 7.322 0 0 0 294.922 74.561 L 294.922 75 Z M 485.84 75 L 477.881 53.76 L 443.066 53.76 L 435.156 75 L 432.275 75 L 458.887 3.906 L 462.109 3.906 L 488.721 75 L 485.84 75 Z M 522.705 44.971 L 502.783 44.971 L 502.783 75 L 500.146 75 L 500.146 3.906 L 522.363 3.906 A 34.813 34.813 0 0 1 528.986 4.498 Q 532.889 5.255 535.935 6.98 A 18.465 18.465 0 0 1 539.282 9.399 A 17.989 17.989 0 0 1 544.835 19.503 A 26.522 26.522 0 0 1 545.312 24.658 A 25.436 25.436 0 0 1 544.617 30.786 A 17.026 17.026 0 0 1 539.429 39.6 A 19.455 19.455 0 0 1 532.175 43.621 Q 528.04 44.923 522.705 44.971 Z M 229.346 7.91 L 232.031 7.91 L 232.031 22.168 L 244.043 22.168 L 244.043 24.854 L 232.031 24.854 L 232.031 62.354 A 27.482 27.482 0 0 0 232.176 65.28 Q 232.546 68.724 233.862 70.654 A 5.801 5.801 0 0 0 237.114 72.962 Q 238.379 73.34 239.99 73.34 A 26.553 26.553 0 0 0 241.732 73.278 Q 242.683 73.215 243.768 73.089 A 56.487 56.487 0 0 0 245.215 72.9 L 245.654 75.391 Q 244.431 75.835 241.886 75.943 A 41.756 41.756 0 0 1 240.137 75.977 A 16.357 16.357 0 0 1 237.155 75.724 Q 235.496 75.415 234.222 74.732 A 7.28 7.28 0 0 1 231.885 72.778 A 9.882 9.882 0 0 1 230.41 70.003 Q 229.377 67.106 229.346 62.695 L 229.346 24.854 L 219.58 24.854 L 219.58 22.168 L 229.346 22.168 L 229.346 7.91 Z M 564.795 3.906 L 564.795 75 L 562.158 75 L 562.158 3.906 L 564.795 3.906 Z M 345.85 61.523 L 345.85 37.549 Q 341.892 24.913 330.025 23.914 A 24.985 24.985 0 0 0 327.93 23.828 A 16.603 16.603 0 0 0 322.114 24.804 Q 318.075 26.303 315.345 30.103 A 18.315 18.315 0 0 0 315.259 30.225 A 21.16 21.16 0 0 0 312.441 36.077 Q 311.545 38.903 311.122 42.363 A 55.377 55.377 0 0 0 310.742 49.072 Q 310.742 57.011 312.948 62.564 A 21.319 21.319 0 0 0 315.234 66.87 A 14.885 14.885 0 0 0 320.337 71.567 Q 323.183 73.118 326.787 73.312 A 19.457 19.457 0 0 0 327.832 73.34 A 24.035 24.035 0 0 0 333.302 72.746 A 18.034 18.034 0 0 0 339.209 70.239 Q 343.896 67.139 345.85 61.523 Z M 502.783 6.543 L 502.783 42.334 L 522.363 42.334 A 32.168 32.168 0 0 0 528.216 41.835 Q 531.559 41.215 534.194 39.829 A 16.453 16.453 0 0 0 537.329 37.695 A 15.164 15.164 0 0 0 542.382 28.446 A 22.215 22.215 0 0 0 542.676 24.756 A 22.167 22.167 0 0 0 542 19.124 A 15.487 15.487 0 0 0 537.329 11.353 A 17.642 17.642 0 0 0 530.323 7.565 Q 527.679 6.798 524.523 6.607 A 35.647 35.647 0 0 0 522.363 6.543 L 502.783 6.543 Z M 460.498 7.08 L 444.043 51.123 L 476.904 51.123 L 460.498 7.08 Z M 102.002 60.742 L 102.002 48.193 L 89.795 48.193 A 45.817 45.817 0 0 0 83.272 48.627 Q 79.937 49.107 77.234 50.122 A 19.154 19.154 0 0 0 72.461 52.686 Q 67.578 56.348 67.578 61.816 A 10.373 10.373 0 0 0 70.912 69.539 A 13.856 13.856 0 0 0 71.436 70.02 A 13.488 13.488 0 0 0 78.46 73.191 A 18.378 18.378 0 0 0 81.201 73.389 A 27.815 27.815 0 0 0 87.501 72.707 A 21.288 21.288 0 0 0 93.97 70.068 A 20.566 20.566 0 0 0 102.002 60.742 Z M 290.918 60.742 L 290.918 48.193 L 278.711 48.193 A 45.817 45.817 0 0 0 272.188 48.627 Q 268.853 49.107 266.15 50.122 A 19.154 19.154 0 0 0 261.377 52.686 Q 256.494 56.348 256.494 61.816 A 10.373 10.373 0 0 0 259.828 69.539 A 13.856 13.856 0 0 0 260.352 70.02 A 13.488 13.488 0 0 0 267.376 73.191 A 18.378 18.378 0 0 0 270.117 73.389 A 27.815 27.815 0 0 0 276.417 72.707 A 21.288 21.288 0 0 0 282.886 70.068 A 20.566 20.566 0 0 0 290.918 60.742 Z" vector-effect="non-scaling-stroke"/></g></svg>